<svg height="350pt" viewBox="0 0 512 512" width="350pt" xmlns="http://www.w3.org/2000/svg"><path d="m386.769531 303.042969c-1.320312-87.183594-44.808593-164.640625-118.636719-228.5-15.324218-13.253907-39.363281-5.871094-44.429687 13.746093-19.554687 75.703126-103.101563 112.484376-103.101563 218.839844 0 72.9375 58.667969 132.175782 131.386719 133.089844 75.375.949219 135.921875-61.804688 134.78125-137.175781zm0 0" fill="#eea849"/><path d="m312.191406 371.851562c0-36.597656-20.28125-67.519531-45.324218-98.628906-5.566407-6.914062-16.226563-6.414062-21.207032.933594-17.929687 26.453125-47.792968 62.828125-47.792968 97.695312 0 42.226563 25.59375 61.570313 57.160156 61.570313 31.570312 0 57.164062-19.34375 57.164062-61.570313zm0 0" fill="#f7ef87"/><path d="m212.066406 243.515625c0-11.296875-11.5-20.457031-25.6875-20.457031-14.191406 0-25.691406 9.160156-25.691406 20.457031 0 11.300781 11.5 20.457031 25.691406 20.457031 14.1875 0 25.6875-9.15625 25.6875-20.457031zm0 0" fill="#fff"/><path d="m351.3125 243.515625c0-11.296875-11.5-20.457031-25.691406-20.457031-14.1875 0-25.6875 9.160156-25.6875 20.457031 0 11.300781 11.5 20.457031 25.6875 20.457031 14.191406 0 25.691406-9.15625 25.691406-20.457031zm0 0" fill="#fff"/><path d="m483 221.601562c0-23.933593-13.265625-44.152343-29.640625-64.496093-3.640625-4.523438-10.613281-4.195313-13.867187.609375-11.726563 17.300781-31.257813 41.085937-31.257813 63.886718 0 27.613282 16.738281 40.265626 37.382813 40.265626 20.644531 0 37.382812-12.652344 37.382812-40.265626zm0 0" fill="#eea849"/><path d="m75.75 83.183594c0-26.753906 14.828125-49.359375 33.136719-72.105469 4.066406-5.054687 11.859375-4.6875 15.503906.683594 13.105469 19.339843 34.941406 45.933593 34.941406 71.421875 0 30.871094-18.710937 45.015625-41.792969 45.015625-23.078124 0-41.789062-14.144531-41.789062-45.015625zm0 0" fill="#eea849"/><path d="m282.707031 397.667969c-29.5 0-53.414062 23.917969-53.414062 53.417969s23.914062 53.414062 53.414062 53.414062h168.378907v-106.832031zm0 0" fill="#d2996f"/><path d="m504.5 451.085938c0 29.5-23.914062 53.414062-53.414062 53.414062s-53.414063-23.914062-53.414063-53.414062 23.914063-53.417969 53.414063-53.417969 53.414062 23.917969 53.414062 53.417969zm0 0" fill="#f9eab9"/><path d="m229.292969 504.5c29.5 0 53.414062-23.914062 53.414062-53.414062s-23.914062-53.417969-53.414062-53.417969h-168.378907v106.832031zm0 0" fill="#e1b89a"/><path d="m130.265625 397.667969h-69.351563v106.832031h89.335938c-28.109375-19.695312-32.488281-72.976562-19.984375-106.832031zm0 0" fill="#d2996f"/><path d="m114.328125 451.085938c0 29.5-23.914063 53.414062-53.414063 53.414062s-53.414062-23.914062-53.414062-53.414062 23.914062-53.417969 53.414062-53.417969 53.414063 23.917969 53.414063 53.417969zm0 0" fill="#f9eab9"/><path d="m157.566406 480.96875h-18.21875c-4.144531 0-7.5-3.355469-7.5-7.5 0-4.140625 3.355469-7.5 7.5-7.5h18.21875c4.144532 0 7.5 3.359375 7.5 7.5 0 4.144531-3.355468 7.5-7.5 7.5zm0 0" fill="#d2996f"/><path d="m219.394531 440.566406h-40.320312c-4.144531 0-7.5-3.359375-7.5-7.5 0-4.144531 3.355469-7.5 7.5-7.5h40.320312c4.140625 0 7.5 3.355469 7.5 7.5 0 4.140625-3.359375 7.5-7.5 7.5zm0 0" fill="#d2996f"/><path d="m321.324219 440.566406h-5.914063c-4.144531 0-7.5-3.359375-7.5-7.5 0-4.144531 3.355469-7.5 7.5-7.5h5.914063c4.140625 0 7.5 3.355469 7.5 7.5 0 4.140625-3.359375 7.5-7.5 7.5zm0 0" fill="#e1b89a"/><path d="m366.09375 480.96875h-25.339844c-4.144531 0-7.5-3.355469-7.5-7.5 0-4.140625 3.355469-7.5 7.5-7.5h25.339844c4.140625 0 7.5 3.359375 7.5 7.5 0 4.144531-3.359375 7.5-7.5 7.5zm0 0" fill="#e1b89a"/><g fill="#efd176"><path d="m40.839844 442.523438c-1.644532 0-3.300782-.539063-4.683594-1.648438-3.234375-2.589844-3.753906-7.308594-1.164062-10.542969 6.34375-7.914062 15.789062-12.453125 25.921874-12.453125 5.316407 0 10.605469 1.289063 15.296876 3.730469 3.675781 1.910156 5.105468 6.4375 3.195312 10.113281-1.910156 3.675782-6.4375 5.105469-10.113281 3.195313-2.601563-1.351563-5.417969-2.039063-8.378907-2.039063-5.554687 0-10.734374 2.492188-14.214843 6.832032-1.480469 1.851562-3.660157 2.8125-5.859375 2.8125zm0 0"/><path d="m60.914062 484.289062c-8.078124 0-15.867187-2.9375-21.929687-8.269531-3.109375-2.734375-3.410156-7.476562-.675781-10.585937 2.738281-3.109375 7.476562-3.410156 10.585937-.675782 3.320313 2.921876 7.589844 4.53125 12.019531 4.53125 3.648438 0 7.167969-1.074218 10.175782-3.105468 3.429687-2.316406 8.09375-1.414063 10.414062 2.015625 2.316406 3.433593 1.414063 8.097656-2.019531 10.414062-5.496094 3.714844-11.917969 5.675781-18.570313 5.675781zm0 0"/><path d="m475.59375 450.820312c-3.1875 0-6.140625-2.046874-7.152344-5.242187-.882812-2.796875-2.390625-5.273437-4.480468-7.363281-3.929688-3.929688-9.355469-5.835938-14.886719-5.222656-4.125.449218-7.824219-2.519532-8.277344-6.636719-.453125-4.117188 2.519531-7.820313 6.636719-8.273438 10.074218-1.105469 19.96875 2.359375 27.132812 9.523438 3.757813 3.757812 6.585938 8.410156 8.179688 13.453125 1.25 3.945312-.941406 8.160156-4.890625 9.410156-.753907.234375-1.515625.351562-2.261719.351562zm0 0"/><path d="m446.183594 483.820312c-.472656 0-.949219-.042968-1.433594-.136718-6.511719-1.261719-12.4375-4.414063-17.144531-9.117188-5.714844-5.714844-9.144531-13.300781-9.65625-21.355468-.265625-4.132813 2.871093-7.699219 7.003906-7.960938 4.140625-.265625 7.699219 2.871094 7.964844 7.003906.28125 4.414063 2.160156 8.570313 5.296875 11.703125 2.578125 2.582031 5.824218 4.308594 9.386718 5 4.066407.785157 6.726563 4.71875 5.9375 8.785157-.691406 3.585937-3.835937 6.078124-7.355468 6.078124zm0 0"/></g><path d="m445.617188 269.367188c27.265624 0 44.882812-18.75 44.882812-47.765626 0-12.277343-3.105469-24.375-9.488281-36.984374-6.203125-12.242188-14.914063-23.648438-21.808594-32.214844-3.234375-4.015625-8.03125-6.191406-13.195313-5.984375-5.175781.210937-9.8125 2.796875-12.722656 7.085937-1.679687 2.480469-3.53125 5.105469-5.488281 7.882813-12.058594 17.097656-27.0625 38.375-27.0625 60.214843 0 29.015626 17.621094 47.765626 44.882813 47.765626zm-5.5625-99.335938c2-2.839844 3.890624-5.519531 5.644531-8.109375.277343-.40625.65625-.503906.921875-.515625.019531 0 .039062-.003906.058594-.003906.339843 0 .621093.136718.839843.40625 16.792969 20.863281 27.980469 39.019531 27.980469 59.792968 0 20.824219-10.890625 32.765626-29.882812 32.765626-18.988282 0-29.878907-11.941407-29.878907-32.765626-.003906-17.082031 13.480469-36.207031 24.316407-51.570312zm-322.515626-34.332031c14.019532 0 26.054688-4.519531 34.796876-13.070313 9.484374-9.273437 14.496093-22.910156 14.496093-39.445312 0-24.132813-16.683593-47.796875-30.089843-66.808594-2.191407-3.109375-4.265626-6.046875-6.144532-8.824219-3.09375-4.5625-8.023437-7.3125-13.527344-7.535156-5.492187-.226563-10.589843 2.09375-14.023437 6.359375-20.886719 25.945312-34.796875 48.9375-34.796875 76.808594 0 16.535156 5.011719 30.175781 14.496094 39.445312 8.742187 8.550782 20.777344 13.070313 34.792968 13.070313zm-2.8125-119.917969c.515626-.636719 1.152344-.78125 1.628907-.78125h.097656c.414063.019531 1.183594.167969 1.726563.96875 1.960937 2.890625 4.070312 5.882812 6.304687 9.050781 12.183594 17.28125 27.347656 38.785157 27.347656 58.164063 0 33.859375-23.980469 37.515625-34.289062 37.515625-10.3125 0-34.292969-3.65625-34.292969-37.515625 0-23.484375 12.585938-43.929688 31.476562-67.402344zm336.359376 374.386719h-84.648438c18.511719-25.140625 28.308594-55.566407 27.832031-87.238281-.863281-56.960938-19.222656-111.273438-54.570312-161.429688-2.386719-3.386719-7.0625-4.195312-10.453125-1.8125-3.382813 2.386719-4.195313 7.066406-1.808594 10.453125 33.578125 47.644531 51.019531 99.125 51.832031 153.015625.488281 32.210938-10.882812 62.980469-32.074219 87.011719h-29.203124c1.128906-5.742188 1.699218-11.867188 1.699218-18.316407 0-37.320312-18.78125-68.296874-46.980468-103.332031-4.144532-5.148437-10.300782-7.945312-16.921876-7.675781-6.644531.273438-12.597656 3.59375-16.335937 9.105469-2.585937 3.8125-5.421875 7.839843-8.429687 12.105469-18.113282 25.6875-40.65625 57.65625-40.65625 89.796874 0 6.449219.570312 12.574219 1.699218 18.316407h-32.585937c-20.257813-22.960938-31.378907-52.316407-31.378907-83.039063 0-60.558594 28.398438-97.855468 55.863282-133.925781 19.886718-26.109375 38.667968-50.777344 47-83.039063 1.714844-6.644531 6.671875-11.835937 13.253906-13.890624 6.648438-2.074219 13.753906-.601563 19.003906 3.941406 15.855469 13.71875 30.339844 28.140625 43.046875 42.867187 2.703125 3.136719 7.441407 3.484375 10.578125.78125 3.132813-2.707031 3.484375-7.441406.777344-10.578125-13.179688-15.28125-28.183594-30.222656-44.589844-44.414062-9.203125-7.960938-21.644531-10.546875-33.28125-6.917969-11.574218 3.613281-20.289062 12.753906-23.3125 24.457031-7.578125 29.335938-25.46875 52.832032-44.410156 77.707032-27.621094 36.277343-58.929688 77.394531-58.929688 143.011718 0 30.109375 9.542969 59.050782 27.136719 83.039063h-79.324219c-33.589843 0-60.914062 27.328125-60.914062 60.917969 0 33.589843 27.324219 60.914062 60.914062 60.914062h64.796876c4.140624 0 7.5-3.355469 7.5-7.5s-3.359376-7.5-7.5-7.5h-24.832032c12.820313-11.175781 20.949219-27.609375 20.949219-45.914062 0-18.308594-8.128906-34.738282-20.949219-45.917969h128.414063c25.316406 0 45.914062 20.601562 45.914062 45.917969 0 25.316406-20.597656 45.914062-45.914062 45.914062h-67.800781c-4.140626 0-7.5 3.355469-7.5 7.5s3.359374 7.5 7.5 7.5h67.800781c9.570312 0 18.632812-2.226562 26.699219-6.179688 8.292968 4.050782 17.445312 6.179688 26.714843 6.179688h168.378907c33.589843 0 60.914062-27.324219 60.914062-60.914062 0-33.589844-27.324219-60.917969-60.914062-60.917969zm-344.257813 60.917969c0 25.316406-20.59375 45.914062-45.914063 45.914062-25.316406 0-45.914062-20.597656-45.914062-45.914062 0-25.316407 20.597656-45.917969 45.914062-45.917969 25.316407 0 45.914063 20.601562 45.914063 45.917969zm149.167969-54.738282c-8.070313-3.949218-17.128906-6.175781-26.703125-6.175781h-21.867188c-1.363281-5.578125-2.058593-11.714844-2.058593-18.320313 0-27.382812 21.023437-57.195312 37.914062-81.152343 3.046875-4.324219 5.925781-8.40625 8.589844-12.335938 1.039062-1.53125 2.691406-2.453125 4.53125-2.53125 1.074218-.039062 3.074218.171875 4.625 2.097657 26.210937 32.558593 43.667968 60.992187 43.667968 93.925781 0 6.601562-.695312 12.738281-2.058593 18.316406h-19.929688c-9.269531-.003906-18.421875 2.125-26.710937 6.175781zm26.710937 100.652344c-3.980469 0-7.933593-.523438-11.753906-1.535156 11.839844-11.121094 19.253906-26.894532 19.253906-44.378906 0-17.484376-7.414062-33.261719-19.253906-44.378907 3.820313-1.011719 7.773437-1.539062 11.753906-1.539062h25.527344c.007813 0 .015625.003906.023437.003906.007813 0 .015626-.003906.023438-.003906h102.839844c-12.824219 11.179687-20.949219 27.609375-20.949219 45.917969 0 18.304687 8.125 34.738281 20.949219 45.914062zm168.378907 0c-25.316407 0-45.914063-20.597656-45.914063-45.914062 0-25.316407 20.597656-45.917969 45.914063-45.917969 25.316406 0 45.914062 20.601562 45.914062 45.917969 0 25.316406-20.597656 45.914062-45.914062 45.914062zm-186.332032-278.417969c-2.210937 2.535157-5.402344 3.992188-8.753906 3.992188s-6.542969-1.457031-8.753906-3.992188c-2.722656-3.125-7.460938-3.445312-10.582032-.726562-3.121093 2.722656-3.445312 7.460937-.726562 10.582031 5.0625 5.804688 12.375 9.136719 20.0625 9.136719 7.691406 0 15.003906-3.332031 20.0625-9.136719 2.722656-3.125 2.398438-7.859375-.726562-10.582031-3.125-2.722657-7.863282-2.398438-10.582032.726562zm-70.90625-4.546875v9.070313c0 4.144531 3.359375 7.5 7.5 7.5 4.144532 0 7.5-3.355469 7.5-7.5v-9.070313c0-4.140625-3.355468-7.5-7.5-7.5-4.140625 0-7.5 3.359375-7.5 7.5zm116.804688-7.5c-4.144532 0-7.5 3.359375-7.5 7.5v9.070313c0 4.144531 3.355468 7.5 7.5 7.5 4.140625 0 7.5-3.355469 7.5-7.5v-9.070313c0-4.140625-3.359375-7.5-7.5-7.5zm0 0"/></svg>