<?xml version="1.0" encoding="iso-8859-1"?>
<!-- Generator: Adobe Illustrator 19.0.0, SVG Export Plug-In . SVG Version: 6.00 Build 0)  -->
<svg version="1.1" id="Capa_1" xmlns="http://www.w3.org/2000/svg" xmlns:xlink="http://www.w3.org/1999/xlink" x="0px" y="0px"
	 viewBox="0 0 456.002 456.002" style="enable-background:new 0 0 456.002 456.002;" xml:space="preserve">
<g>
	<g>
		<circle cx="304.562" cy="320.961" r="25.04"/>
	</g>
</g>
<g>
	<g>
		<circle cx="69.682" cy="320.961" r="25.04"/>
	</g>
</g>
<g>
	<g>
		<path d="M131.362,172.001h-68c-2.869-0.011-5.525,1.515-6.96,4l-21.04,36.88h104v-32.88
			C139.362,175.583,135.78,172.001,131.362,172.001z"/>
	</g>
</g>
<g>
	<g>
		<path d="M7.522,228.881c-4.292,0.257-7.614,3.861-7.52,8.16v84c0,4.418,3.582,8,8,8h21.44c-5.07-22.091,8.728-44.11,30.82-49.18
			c22.091-5.07,44.11,8.728,49.18,30.82c1.387,6.042,1.387,12.319,0,18.361h21.44c4.418,0,8-3.582,8-8v-92.16H7.522z"/>
	</g>
</g>
<g>
	<g>
		<path d="M448.002,204.001h-148.64c-4.418,0-8-3.582-8-8s3.582-8,8-8h107.28v-8h11.68c4.418,0,8-3.582,8-8s-3.582-8-8-8h-62.96
			c-4.418,0-8-3.582-8-8s3.582-8,8-8h51.36v-22c0-8.837-7.163-16-16-16h-224c-8.837,0-16,7.163-16,16v187.04c0,8.837,7.163,16,16,16
			h97.6c-4.869-22.091,9.093-43.947,31.184-48.816c22.091-4.869,43.947,9.093,48.816,31.184c1.28,5.808,1.28,11.824,0,17.632h45.92
			c8.837,0,16-7.163,16-16v-52h22c4.418,0,8-3.582,8-8c0-4.418-3.582-8-8-8h-88.88c-4.418,0-8-3.582-8-8s3.582-8,8-8h67.36v-9.04
			h41.28c4.418,0,8-3.582,8-8S452.42,204.001,448.002,204.001z"/>
	</g>
</g>
<g>
</g>
<g>
</g>
<g>
</g>
<g>
</g>
<g>
</g>
<g>
</g>
<g>
</g>
<g>
</g>
<g>
</g>
<g>
</g>
<g>
</g>
<g>
</g>
<g>
</g>
<g>
</g>
<g>
</g>
</svg>
